<?xml version="1.0" encoding="UTF-8" standalone="no"?>
<!DOCTYPE svg PUBLIC "-//W3C//DTD SVG 1.1//EN" "http://www.w3.org/Graphics/SVG/1.1/DTD/svg11.dtd">
<svg width="100%" height="100%" viewBox="0 0 118 165" version="1.1" xmlns="http://www.w3.org/2000/svg" xmlns:xlink="http://www.w3.org/1999/xlink" xml:space="preserve" xmlns:serif="http://www.serif.com/" style="fill-rule:evenodd;clip-rule:evenodd;stroke-linejoin:round;stroke-miterlimit:2;">
    <g id="Artboard1" transform="matrix(0.274023,0,0,0.660373,10.6678,8.20963)">
        <rect x="-38.93" y="-12.432" width="430.431" height="248.983" style="fill:none;"/>
        <clipPath id="_clip1">
            <rect x="-38.93" y="-12.432" width="430.431" height="248.983"/>
        </clipPath>
        <g clip-path="url(#_clip1)">
            <g transform="matrix(2.18206,0,0,0.900279,-1157.82,-5447.38)">
                <path d="M701.002,6128.73L701.002,6310.44L523.234,6310.44L523.234,6128.73C523.234,6081.61 561.272,6043.35 608.123,6043.35L616.113,6043.35C662.965,6043.35 701.002,6081.61 701.002,6128.73Z" style="fill:url(#_Linear2);"/>
                <clipPath id="_clip3">
                    <path d="M701.002,6128.73L701.002,6310.44L523.234,6310.44L523.234,6128.73C523.234,6081.61 561.272,6043.35 608.123,6043.35L616.113,6043.35C662.965,6043.35 701.002,6081.61 701.002,6128.73Z"/>
                </clipPath>
                <g clip-path="url(#_clip3)">
                    <g transform="matrix(0.936223,0,0,0.9416,-178.528,368.516)">
                        <g transform="matrix(0.735594,0,0,0.917486,394.938,523.452)">
                            <path d="M701.002,6128.73L701.002,6310.44L523.234,6310.44L523.234,6128.73C523.234,6081.61 561.272,6043.35 608.123,6043.35L616.113,6043.35C662.965,6043.35 701.002,6081.61 701.002,6128.73Z" style="fill:url(#_Linear4);"/>
                            <path d="M704.521,6128.73L707.741,6310.44C707.794,6313.84 704.23,6316.03 701.002,6316.07C668.994,6316.44 528.058,6317.71 523.234,6317.7C517.728,6317.7 514.032,6314.07 513.975,6310.44C513.286,6266.19 512.133,6133.74 512.914,6122.82C516.14,6077.71 552.2,6040.59 599.571,6036.87C602.416,6036.65 619.093,6035.96 631.686,6038.34C638.215,6039.57 663.059,6044.46 683.232,6067.62C707.138,6095.06 704.795,6125.35 704.684,6128.73L704.521,6128.73ZM697.482,6128.73L697.34,6128.73C697.276,6127.82 697.147,6091.24 665.356,6066.53C642.549,6048.8 619.302,6049.87 616.097,6049.93C609.404,6050.06 597.39,6049.41 582.707,6055.09C556.609,6065.19 533.658,6092.25 533.764,6128.75C533.954,6194.45 533.52,6194.44 532.389,6303.1L694.12,6304.92L697.482,6128.73Z" style="fill:rgb(233,147,81);"/>
                        </g>
                        <g transform="matrix(1,0,0,1,210.746,-13.1611)">
                            <path d="M635.96,6127.14L646.878,6144.59L666.846,6149.58L653.626,6165.35L655.048,6185.89L635.96,6178.19L616.871,6185.89L618.294,6165.35L605.074,6149.58L625.042,6144.59L635.96,6127.14Z" style="fill:rgb(214,123,68);"/>
                        </g>
                        <g transform="matrix(0.793447,0,0,0.793447,360.739,1285.36)">
                            <circle cx="657.055" cy="6224.84" r="19.67" style="fill:rgb(214,123,68);"/>
                            <path d="M657.055,6203.76C678.267,6203.36 686.912,6228.77 672.21,6242.35C659.111,6254.45 637.799,6247.49 634.005,6230.78C630.625,6215.9 642.494,6202.54 656.509,6203.64C656.691,6203.66 656.873,6203.68 657.055,6203.69L657.055,6203.76ZM657.055,6206.57L657.055,6206.65C656.93,6206.67 648.874,6207.23 644.056,6214.64C635.722,6227.47 647.43,6243.89 661.783,6240.03C674.895,6236.51 678.493,6218.87 666.951,6210.16C662.482,6206.79 657.928,6206.66 657.055,6206.57Z" style="fill:rgb(232,137,81);"/>
                        </g>
                    </g>
                </g>
            </g>
            <g transform="matrix(2.18206,0,0,0.900279,-1154.17,-5447.38)">
                <path d="M702.436,6128.73C703.677,6310.5 703.708,6310.5 703.642,6310.91C703.429,6312.23 702.231,6313.18 701.002,6313.19L545.012,6314.11C537.753,6314.15 530.494,6314.2 523.234,6314.22C521.111,6314.22 519.451,6312.43 519.441,6310.44C519.372,6295.9 518.861,6187.98 518.935,6128.72C518.997,6079.43 558.98,6039.44 608.117,6039.87C616.387,6039.94 629.218,6039.38 645.322,6045.3C669.678,6054.25 682.61,6071.33 686.924,6077.53C702.769,6100.32 702.572,6122.67 702.502,6128.73L702.436,6128.73ZM699.567,6128.73L699.509,6128.73C699.408,6125.62 699.779,6095.6 675.046,6070.86C660.969,6056.79 640.392,6046.47 616.108,6046.75C608.322,6046.84 600.869,6046.56 590.764,6048.88C554.708,6057.15 527.492,6089.63 527.534,6128.74L527.526,6168.85L527.007,6306.65L698.299,6307.72L699.567,6128.73Z" style="fill:rgb(186,101,93);"/>
            </g>
        </g>
    </g>
    <defs>
        <linearGradient id="_Linear2" x1="0" y1="0" x2="1" y2="0" gradientUnits="userSpaceOnUse" gradientTransform="matrix(1.51664e-14,249.108,-247.686,1.52535e-14,650.097,6063.04)"><stop offset="0" style="stop-color:rgb(249,179,100);stop-opacity:1"/><stop offset="1" style="stop-color:rgb(228,121,0);stop-opacity:1"/></linearGradient>
        <linearGradient id="_Linear4" x1="0" y1="0" x2="1" y2="0" gradientUnits="userSpaceOnUse" gradientTransform="matrix(1.86684e-14,244.436,-304.878,1.49674e-14,587.936,6052.79)"><stop offset="0" style="stop-color:rgb(251,199,103);stop-opacity:1"/><stop offset="1" style="stop-color:rgb(233,151,0);stop-opacity:1"/></linearGradient>
    </defs>
</svg>
