<?xml version="1.0" encoding="UTF-8" standalone="no"?>
<!DOCTYPE svg PUBLIC "-//W3C//DTD SVG 1.1//EN" "http://www.w3.org/Graphics/SVG/1.1/DTD/svg11.dtd">
<svg width="100%" height="100%" viewBox="0 0 1080 1920" version="1.1" xmlns="http://www.w3.org/2000/svg" xmlns:xlink="http://www.w3.org/1999/xlink" xml:space="preserve" xmlns:serif="http://www.serif.com/" style="fill-rule:evenodd;clip-rule:evenodd;stroke-linecap:round;stroke-linejoin:round;stroke-miterlimit:1.5;">
    <g transform="matrix(1,0,0,1,-1260.85,-93)">
        <g id="Artboard1" transform="matrix(0.983753,0,0,0.866806,1257.46,91.5766)">
            <rect x="3.448" y="1.642" width="1097.84" height="2215.03" style="fill:none;"/>
            <clipPath id="_clip1">
                <rect x="3.448" y="1.642" width="1097.84" height="2215.03"/>
            </clipPath>
            <g clip-path="url(#_clip1)">
                <g transform="matrix(1.01504,0,0,1.16639,-1277.25,-24.1741)">
                    <rect x="1255.5" y="2.945" width="1112.26" height="1945.93" style="fill:rgb(38,35,35);"/>
                </g>
                <g transform="matrix(1.01652,0,0,1.15366,-1278.23,-105.648)">
                    <circle cx="1404.82" cy="1385.3" r="11.133" style="fill:rgb(249,249,249);"/>
                </g>
                <g transform="matrix(1.01652,0,0,1.15366,-646.739,-99.6397)">
                    <circle cx="1404.82" cy="1385.3" r="11.133" style="fill:rgb(249,249,249);"/>
                </g>
                <g transform="matrix(1.01652,0,0,1.15366,-537.559,276.19)">
                    <circle cx="1404.82" cy="1385.3" r="11.133" style="fill:rgb(249,249,249);"/>
                </g>
                <g transform="matrix(1,0,0,1,-16.2484,-522.194)">
                    <g transform="matrix(1.01652,0,0,2.06741,-519.745,-1952.79)">
                        <circle cx="1404.82" cy="1385.3" r="11.133" style="fill:rgb(249,249,249);"/>
                    </g>
                    <g transform="matrix(6.22436e-17,1.15366,-1.82164,1.26593e-16,3431.79,-709.49)">
                        <circle cx="1404.82" cy="1385.3" r="11.133" style="fill:rgb(249,249,249);"/>
                    </g>
                </g>
                <g transform="matrix(6.22436e-17,1.15366,-1.82164,1.26593e-16,2776.17,-1068.25)">
                    <circle cx="1404.82" cy="1385.3" r="11.133" style="fill:rgb(249,249,249);"/>
                </g>
                <g transform="matrix(0.328471,0,0,0.328471,346.595,482.676)">
                    <g>
                        <g transform="matrix(0.399306,1.06093,-0.934804,0.45318,187.096,-2714.71)">
                            <path d="M3095.92,1029.03C3061.92,1051.85 3004.95,1096.27 2975.04,1188.02C2945.14,1279.76 3035.55,1266.74 3034.72,1249.72C3033.84,1231.76 3032.31,1220.84 3033.68,1223.11C3034.12,1223.83 3034.66,1256.72 3059.42,1250.61C3100.86,1240.38 3029.38,1198.46 3165.54,1075.57C3203.97,1040.88 3176,975.268 3095.92,1029.03Z" style="fill:rgb(254,230,196);"/>
                            <clipPath id="_clip2">
                                <path d="M3095.92,1029.03C3061.92,1051.85 3004.95,1096.27 2975.04,1188.02C2945.14,1279.76 3035.55,1266.74 3034.72,1249.72C3033.84,1231.76 3032.31,1220.84 3033.68,1223.11C3034.12,1223.83 3034.66,1256.72 3059.42,1250.61C3100.86,1240.38 3029.38,1198.46 3165.54,1075.57C3203.97,1040.88 3176,975.268 3095.92,1029.03Z"/>
                            </clipPath>
                            <g clip-path="url(#_clip2)">
                                <g transform="matrix(1.1959,-2.79969,2.79969,1.1959,-1247.62,4958.84)">
                                    <path d="M1699.35,788.715C1699.35,788.715 1689.18,800.321 1700.3,820.832" style="fill:none;stroke:rgb(57,12,24);stroke-width:2.5px;"/>
                                </g>
                            </g>
                        </g>
                        <g transform="matrix(0.399306,1.06093,-0.934804,0.45318,187.096,-2714.71)">
                            <path d="M3042.09,1259.9L3041.07,1261.49C3036.95,1266.08 3028.61,1270.45 3018.27,1272.1C3002.85,1274.56 2983.27,1271.23 2970.71,1257.63C2959.01,1244.96 2952.27,1222.4 2964.59,1184.61C2995.57,1089.57 3054.57,1043.54 3089.79,1019.89C3136.92,988.252 3169.11,995.406 3183.47,1011.91C3198.94,1029.68 3197.27,1061.74 3172.91,1083.73C3081.9,1165.87 3087.55,1209.83 3085.85,1232.34C3085.29,1239.74 3083.74,1245.48 3080.5,1250.06C3077.07,1254.9 3071.68,1258.91 3062.05,1261.29C3053.81,1263.32 3047.29,1262.32 3042.09,1259.9ZM3023.59,1247.35C3022.84,1233.16 3022,1223.56 3022.33,1221.49L3023.1,1218.73L3024.3,1216.53L3026.74,1214.03L3029.52,1212.51L3034.24,1211.85L3038.02,1212.83L3040.87,1214.7L3043.09,1217.41L3044.62,1221.7C3044.77,1222.7 3044.98,1227.04 3046.36,1231.79C3047.2,1234.68 3048.22,1238.13 3051,1239.76C3052.44,1240.6 3054.34,1240.53 3056.78,1239.93C3059.51,1239.25 3061.42,1238.75 3062.48,1237.43C3063.52,1236.14 3063.55,1234.38 3063.76,1232.33C3064.15,1228.67 3064.2,1224.37 3064.48,1219.36C3065.98,1192.01 3072.47,1144.74 3158.17,1067.4C3174.7,1052.48 3176.78,1029.68 3161.25,1022.07C3148.97,1016.06 3129.28,1019.88 3102.05,1038.16C3069.27,1060.17 3014.33,1102.98 2985.5,1191.43C2976.88,1217.88 2978.68,1233.84 2986.87,1242.7C2994.19,1250.63 3005.83,1251.81 3014.82,1250.38C3017.95,1249.88 3021.75,1248.21 3023.59,1247.35Z" style="fill:rgb(57,12,24);"/>
                        </g>
                    </g>
                    <g transform="matrix(-1,0,0,1,1132.71,-32.3481)">
                        <g transform="matrix(0.399306,1.06093,-0.934804,0.45318,187.096,-2714.71)">
                            <path d="M3095.92,1029.03C3061.92,1051.85 3004.95,1096.27 2975.04,1188.02C2945.14,1279.76 3035.55,1266.74 3034.72,1249.72C3033.84,1231.76 3032.31,1220.84 3033.68,1223.11C3034.12,1223.83 3034.66,1256.72 3059.42,1250.61C3100.86,1240.38 3029.38,1198.46 3165.54,1075.57C3203.97,1040.88 3176,975.268 3095.92,1029.03Z" style="fill:rgb(254,230,196);"/>
                            <clipPath id="_clip3">
                                <path d="M3095.92,1029.03C3061.92,1051.85 3004.95,1096.27 2975.04,1188.02C2945.14,1279.76 3035.55,1266.74 3034.72,1249.72C3033.84,1231.76 3032.31,1220.84 3033.68,1223.11C3034.12,1223.83 3034.66,1256.72 3059.42,1250.61C3100.86,1240.38 3029.38,1198.46 3165.54,1075.57C3203.97,1040.88 3176,975.268 3095.92,1029.03Z"/>
                            </clipPath>
                            <g clip-path="url(#_clip3)">
                                <g transform="matrix(1.1959,-2.79969,2.79969,1.1959,-1247.62,4958.84)">
                                    <path d="M1699.35,788.715C1699.35,788.715 1689.18,800.321 1700.3,820.832" style="fill:none;stroke:rgb(57,12,24);stroke-width:2.5px;"/>
                                </g>
                            </g>
                        </g>
                        <g transform="matrix(0.399306,1.06093,-0.934804,0.45318,187.096,-2714.71)">
                            <path d="M3042.09,1259.9L3041.07,1261.49C3036.95,1266.08 3028.61,1270.45 3018.27,1272.1C3002.85,1274.56 2983.27,1271.23 2970.71,1257.63C2959.01,1244.96 2952.27,1222.4 2964.59,1184.61C2995.57,1089.57 3054.57,1043.54 3089.79,1019.89C3136.92,988.252 3169.11,995.406 3183.47,1011.91C3198.94,1029.68 3197.27,1061.74 3172.91,1083.73C3081.9,1165.87 3087.55,1209.83 3085.85,1232.34C3085.29,1239.74 3083.74,1245.48 3080.5,1250.06C3077.07,1254.9 3071.68,1258.91 3062.05,1261.29C3053.81,1263.32 3047.29,1262.32 3042.09,1259.9ZM3023.59,1247.35C3022.84,1233.16 3022,1223.56 3022.33,1221.49L3023.1,1218.73L3024.3,1216.53L3026.74,1214.03L3029.52,1212.51L3034.24,1211.85L3038.02,1212.83L3040.87,1214.7L3043.09,1217.41L3044.62,1221.7C3044.77,1222.7 3044.98,1227.04 3046.36,1231.79C3047.2,1234.68 3048.22,1238.13 3051,1239.76C3052.44,1240.6 3054.34,1240.53 3056.78,1239.93C3059.51,1239.25 3061.42,1238.75 3062.48,1237.43C3063.52,1236.14 3063.55,1234.38 3063.76,1232.33C3064.15,1228.67 3064.2,1224.37 3064.48,1219.36C3065.98,1192.01 3072.47,1144.74 3158.17,1067.4C3174.7,1052.48 3176.78,1029.68 3161.25,1022.07C3148.97,1016.06 3129.28,1019.88 3102.05,1038.16C3069.27,1060.17 3014.33,1102.98 2985.5,1191.43C2976.88,1217.88 2978.68,1233.84 2986.87,1242.7C2994.19,1250.63 3005.83,1251.81 3014.82,1250.38C3017.95,1249.88 3021.75,1248.21 3023.59,1247.35Z" style="fill:rgb(57,12,24);"/>
                        </g>
                    </g>
                    <g transform="matrix(0.519339,0.265574,-0.33855,0.85274,-1198.19,-1373.03)">
                        <ellipse cx="4258.78" cy="1640.64" rx="97.117" ry="86.84" style="fill:rgb(254,230,196);"/>
                    </g>
                    <g transform="matrix(0.519339,0.265574,-0.33855,0.85274,-1198.19,-1373.03)">
                        <path d="M4258.78,1540.24C4321.69,1540.24 4375.53,1584.39 4375.53,1640.64C4375.53,1696.89 4321.69,1741.05 4258.78,1741.05C4195.88,1741.05 4142.04,1696.89 4142.04,1640.64C4142.04,1584.39 4195.88,1540.24 4258.78,1540.24ZM4258.78,1567.37C4214.46,1567.37 4181.3,1601.01 4181.3,1640.64C4181.3,1680.28 4214.46,1713.92 4258.78,1713.92C4303.11,1713.92 4336.27,1680.28 4336.27,1640.64C4336.27,1601.01 4303.11,1567.37 4258.78,1567.37Z" style="fill:rgb(57,12,24);"/>
                    </g>
                    <g transform="matrix(-0.519339,0.265574,0.33855,0.85274,2293.39,-1373.03)">
                        <ellipse cx="4258.78" cy="1640.64" rx="97.117" ry="86.84" style="fill:rgb(254,230,196);"/>
                    </g>
                    <g transform="matrix(-0.519339,0.265574,0.33855,0.85274,2293.39,-1373.03)">
                        <path d="M4258.78,1540.24C4195.88,1540.24 4142.04,1584.39 4142.04,1640.64C4142.04,1696.89 4195.88,1741.05 4258.78,1741.05C4321.69,1741.05 4375.53,1696.89 4375.53,1640.64C4375.53,1584.39 4321.69,1540.24 4258.78,1540.24ZM4258.78,1567.37C4303.11,1567.37 4336.27,1601.01 4336.27,1640.64C4336.27,1680.28 4303.11,1713.92 4258.78,1713.92C4214.46,1713.92 4181.3,1680.28 4181.3,1640.64C4181.3,1601.01 4214.46,1567.37 4258.78,1567.37Z" style="fill:rgb(57,12,24);"/>
                    </g>
                    <g transform="matrix(1.67535,0,0,1.98066,-6587.36,-2198.4)">
                        <ellipse cx="4258.78" cy="1640.64" rx="97.117" ry="86.84" style="fill:rgb(254,230,196);"/>
                    </g>
                    <g transform="matrix(1.67535,0,0,1.98066,-6587.36,-2198.4)">
                        <path d="M4258.78,1547.4C4316.19,1547.4 4362.58,1589.31 4362.58,1640.64C4362.58,1691.98 4316.19,1733.89 4258.78,1733.89C4201.38,1733.89 4154.99,1691.98 4154.99,1640.64C4154.99,1589.31 4201.38,1547.4 4258.78,1547.4ZM4258.78,1560.21C4208.99,1560.21 4168.34,1596.12 4168.34,1640.64C4168.34,1685.17 4208.99,1721.08 4258.78,1721.08C4308.58,1721.08 4349.23,1685.17 4349.23,1640.64C4349.23,1596.12 4308.58,1560.21 4258.78,1560.21Z" style="fill:rgb(57,12,24);"/>
                    </g>
                    <g transform="matrix(1.01652,0,0,1.60499,-3818.37,-445.68)">
                        <path d="M4107.18,790.788L4107.18,855.642C4107.18,855.642 4053.14,866.45 4042.33,855.642C4031.52,844.833 4031.52,801.597 4042.33,790.788C4053.14,779.979 4107.18,790.788 4107.18,790.788Z" style="fill:rgb(254,230,196);"/>
                    </g>
                    <g transform="matrix(1.01652,0,0,1.60499,-3818.37,-445.68)">
                        <path d="M4118.18,790.788L4118.18,855.642C4118.18,859.192 4114.89,862.307 4110.13,863.259C4110.13,863.259 4081.71,868.878 4060.69,868.309C4048.24,867.973 4038.2,865.061 4033.4,860.256C4027.2,854.063 4023.22,838.699 4023.22,823.215C4023.22,807.731 4027.2,792.367 4033.4,786.173C4038.2,781.369 4048.24,778.457 4060.69,778.12C4081.71,777.552 4110.13,783.171 4110.13,783.171C4114.89,784.123 4118.18,787.238 4118.18,790.788ZM4096.18,796.98C4089.3,795.867 4078.98,794.438 4069.16,794.011C4064.2,793.796 4059.39,793.818 4055.37,794.393C4053.66,794.636 4052.02,794.642 4051.26,795.403C4049.75,796.912 4048.79,799.389 4047.88,802.345C4046.08,808.222 4045.22,815.719 4045.22,823.215C4045.22,830.71 4046.08,838.208 4047.88,844.085C4048.79,847.041 4049.75,849.518 4051.26,851.027C4052.02,851.788 4053.66,851.794 4055.37,852.037C4059.39,852.612 4064.2,852.634 4069.16,852.419C4078.98,851.992 4089.3,850.563 4096.18,849.449L4096.18,796.98Z" style="fill:rgb(57,12,24);"/>
                    </g>
                    <g transform="matrix(-1.01652,0,0,1.60499,4907.17,-445.68)">
                        <path d="M4107.18,790.788L4107.18,855.642C4107.18,855.642 4053.14,866.45 4042.33,855.642C4031.52,844.833 4031.52,801.597 4042.33,790.788C4053.14,779.979 4107.18,790.788 4107.18,790.788Z" style="fill:rgb(254,230,196);"/>
                    </g>
                    <g transform="matrix(-1.01652,0,0,1.60499,4907.17,-445.68)">
                        <path d="M4110.13,783.171C4110.13,783.171 4081.71,777.552 4060.69,778.12C4048.24,778.457 4038.2,781.369 4033.4,786.173C4027.2,792.367 4023.22,807.731 4023.22,823.215C4023.22,838.699 4027.2,854.063 4033.4,860.256C4038.2,865.061 4048.24,867.973 4060.69,868.309C4081.71,868.878 4110.13,863.259 4110.13,863.259C4114.89,862.307 4118.18,859.192 4118.18,855.642L4118.18,790.788C4118.18,787.238 4114.89,784.123 4110.13,783.171ZM4096.18,796.98L4096.18,849.45C4089.3,850.563 4078.98,851.992 4069.16,852.419C4064.2,852.634 4059.39,852.612 4055.37,852.037C4053.66,851.794 4052.02,851.788 4051.26,851.027C4049.75,849.518 4048.79,847.041 4047.88,844.085C4046.08,838.208 4045.22,830.71 4045.22,823.215C4045.22,815.719 4046.08,808.222 4047.88,802.345C4048.79,799.389 4049.75,796.912 4051.26,795.403C4052.02,794.642 4053.66,794.636 4055.37,794.393C4059.39,793.818 4064.2,793.796 4069.16,794.011C4078.98,794.438 4089.3,795.867 4096.18,796.98Z" style="fill:rgb(57,12,24);"/>
                    </g>
                    <g transform="matrix(1.0626,0,0,1.14329,-2917.54,-174.176)">
                        <circle cx="3259.84" cy="888.551" r="211.687" style="fill:rgb(254,230,196);"/>
                        <clipPath id="_clip4">
                            <circle cx="3259.84" cy="888.551" r="211.687"/>
                        </clipPath>
                        <g clip-path="url(#_clip4)">
                            <g transform="matrix(1,0,0,1.00036,-5.68434e-14,45.275)">
                                <circle cx="3259.84" cy="888.551" r="211.687" style="fill:rgb(155,24,38);"/>
                                <clipPath id="_clip5">
                                    <circle cx="3259.84" cy="888.551" r="211.687"/>
                                </clipPath>
                                <g clip-path="url(#_clip5)">
                                    <g transform="matrix(0.908062,0,0,0.95784,319.434,-508.722)">
                                        <path d="M3471.71,1388.85C3472.89,1398.43 3473.5,1408.18 3473.5,1418.08C3473.5,1548.88 3367.31,1655.07 3236.51,1655.07C3105.72,1655.07 2999.53,1548.88 2999.53,1418.08C2999.53,1408.18 3000.13,1398.43 3001.31,1388.85C3015.73,1505.88 3115.61,1596.61 3236.51,1596.61C3357.41,1596.61 3457.29,1505.88 3471.71,1388.85Z" style="fill:rgb(125,18,33);"/>
                                    </g>
                                </g>
                            </g>
                            <g transform="matrix(1,0,0,1.00036,0,45.275)">
                                <path d="M3259.84,665.768C3382.63,665.768 3482.05,765.76 3482.05,888.551C3482.05,1011.34 3382.63,1111.34 3259.84,1111.34C3137.04,1111.34 3037.62,1011.34 3037.62,888.551C3037.62,765.76 3137.04,665.768 3259.84,665.768ZM3259.84,687.96C3148.96,687.96 3058.67,777.675 3058.67,888.551C3058.67,999.427 3148.96,1089.14 3259.84,1089.14C3370.71,1089.14 3461,999.427 3461,888.551C3461,777.675 3370.71,687.96 3259.84,687.96Z" style="fill:rgb(57,12,24);"/>
                            </g>
                        </g>
                    </g>
                    <g transform="matrix(1.0626,0,0,1.14329,-2917.54,-174.176)">
                        <path d="M3259.84,665.764C3382.63,665.764 3482.05,765.759 3482.05,888.551C3482.05,1011.34 3382.63,1111.34 3259.84,1111.34C3137.04,1111.34 3037.62,1011.34 3037.62,888.551C3037.62,765.759 3137.04,665.764 3259.84,665.764ZM3259.84,687.964C3148.96,687.964 3058.67,777.676 3058.67,888.551C3058.67,999.426 3148.96,1089.14 3259.84,1089.14C3370.71,1089.14 3461,999.426 3461,888.551C3461,777.676 3370.71,687.964 3259.84,687.964Z" style="fill:rgb(57,12,24);"/>
                    </g>
                    <g transform="matrix(0.867156,0,0,0.628689,-2278.78,302.652)">
                        <path d="M3259.84,676.864C3376.67,676.864 3471.52,753.324 3471.52,888.551C3471.52,1023.78 3376.67,1100.24 3259.84,1100.24C3143,1100.24 3048.15,1028.63 3048.15,888.551C3048.15,748.472 3143,676.864 3259.84,676.864Z" style="fill:rgb(74,19,31);"/>
                    </g>
                    <g transform="matrix(0.867156,0,0,0.628689,-2278.78,302.652)">
                        <path d="M3259.84,656.678C3320.87,656.678 3376.1,677.061 3416.13,714.692C3458.58,754.596 3484.42,813.645 3484.42,888.551C3484.42,963.457 3458.58,1022.51 3416.13,1062.41C3376.1,1100.04 3320.87,1120.42 3259.84,1120.42C3198.83,1120.42 3143.64,1101.29 3103.62,1064.31C3061.18,1025.08 3035.25,966.134 3035.25,888.551C3035.25,810.969 3061.18,752.021 3103.62,712.796C3143.64,675.817 3198.83,656.678 3259.84,656.678ZM3259.84,697.049C3204,697.049 3153.36,713.714 3116.73,747.56C3082.54,779.159 3061.04,826.054 3061.04,888.551C3061.04,951.049 3082.54,997.944 3116.73,1029.54C3153.36,1063.39 3204,1080.05 3259.84,1080.05C3315.64,1080.05 3366.25,1062.21 3402.85,1027.8C3437.04,995.666 3458.63,948.873 3458.63,888.551C3458.63,828.229 3437.04,781.437 3402.85,749.303C3366.25,714.896 3315.64,697.049 3259.84,697.049Z" style="fill:rgb(57,13,24);"/>
                    </g>
                    <g transform="matrix(0.117373,0,0,0.265566,54.2102,629.523)">
                        <circle cx="3259.84" cy="888.551" r="211.687" style="fill:rgb(255,229,196);"/>
                    </g>
                    <g transform="matrix(0.117373,0,0,0.265566,54.2102,629.523)">
                        <path d="M3259.84,629.078C3334.34,629.078 3407.59,649.793 3463.45,690.749C3524.41,735.45 3566.79,807.232 3566.79,888.551C3566.79,969.87 3524.41,1041.65 3463.45,1086.35C3407.59,1127.31 3334.34,1148.03 3259.84,1148.03C3185.33,1148.03 3112.08,1127.31 3056.22,1086.35C2995.26,1041.65 2952.88,969.87 2952.88,888.551C2952.88,807.232 2995.26,735.45 3056.22,690.749C3112.08,649.793 3185.33,629.078 3259.84,629.078ZM3259.84,724.65C3248.81,724.65 3240.23,728.976 3231.07,733.727C3217.68,740.669 3205.9,749.756 3195.33,760.32C3162.53,793.121 3143.41,838.545 3143.41,888.551C3143.41,938.557 3162.53,983.982 3195.33,1016.78C3205.9,1027.35 3217.68,1036.43 3231.07,1043.38C3240.23,1048.13 3248.81,1052.45 3259.84,1052.45C3270.86,1052.45 3279.44,1048.13 3288.6,1043.38C3301.99,1036.43 3313.77,1027.35 3324.34,1016.78C3357.14,983.982 3376.26,938.557 3376.26,888.551C3376.26,838.545 3357.14,793.121 3324.34,760.32C3313.77,749.756 3301.99,740.669 3288.6,733.727C3279.44,728.976 3270.86,724.65 3259.84,724.65Z" style="fill:none;"/>
                    </g>
                    <g transform="matrix(0.117373,0,0,0.265566,256.534,629.024)">
                        <circle cx="3259.84" cy="888.551" r="211.687" style="fill:rgb(255,229,196);"/>
                    </g>
                    <g transform="matrix(0.117373,0,0,0.265566,256.534,629.024)">
                        <path d="M3259.84,629.078C3334.34,629.078 3407.59,649.793 3463.45,690.749C3524.41,735.45 3566.79,807.232 3566.79,888.551C3566.79,969.87 3524.41,1041.65 3463.45,1086.35C3407.59,1127.31 3334.34,1148.03 3259.84,1148.03C3185.33,1148.03 3112.08,1127.31 3056.22,1086.35C2995.26,1041.65 2952.88,969.87 2952.88,888.551C2952.88,807.232 2995.26,735.45 3056.22,690.749C3112.08,649.793 3185.33,629.078 3259.84,629.078ZM3259.84,724.65C3248.81,724.65 3240.23,728.976 3231.07,733.727C3217.68,740.669 3205.9,749.756 3195.33,760.32C3162.53,793.121 3143.41,838.545 3143.41,888.551C3143.41,938.557 3162.53,983.982 3195.33,1016.78C3205.9,1027.35 3217.68,1036.43 3231.07,1043.38C3240.23,1048.13 3248.81,1052.45 3259.84,1052.45C3270.86,1052.45 3279.44,1048.13 3288.6,1043.38C3301.99,1036.43 3313.77,1027.35 3324.34,1016.78C3357.14,983.982 3376.26,938.557 3376.26,888.551C3376.26,838.545 3357.14,793.121 3324.34,760.32C3313.77,749.756 3301.99,740.669 3288.6,733.727C3279.44,728.976 3270.86,724.65 3259.84,724.65Z" style="fill:none;"/>
                    </g>
                    <g transform="matrix(0.988777,0.267669,-0.235849,1.12218,-2377.75,-965.761)">
                        <circle cx="3275.33" cy="814.343" r="19.139" style="fill:rgb(231,226,219);fill-opacity:0.56;"/>
                    </g>
                    <g transform="matrix(0.988777,0.267669,-0.235849,1.12218,-2377.75,-965.761)">
                        <path d="M3275.33,784.204C3291.97,784.204 3305.47,797.709 3305.47,814.343C3305.47,830.977 3291.97,844.482 3275.33,844.482C3258.7,844.482 3245.19,830.977 3245.19,814.343C3245.19,797.709 3258.7,784.204 3275.33,784.204ZM3275.33,806.204C3270.84,806.204 3267.19,809.851 3267.19,814.343C3267.19,818.835 3270.84,822.482 3275.33,822.482C3279.82,822.482 3283.47,818.835 3283.47,814.343C3283.47,809.851 3279.82,806.204 3275.33,806.204Z" style="fill:none;"/>
                    </g>
                    <g transform="matrix(0.556677,0.150696,-0.132782,0.631783,-1295.84,-89.4925)">
                        <circle cx="3275.33" cy="814.343" r="19.139" style="fill:rgb(231,226,219);fill-opacity:0.56;"/>
                    </g>
                    <g transform="matrix(0.556677,0.150696,-0.132782,0.631783,-1295.84,-89.4925)">
                        <path d="M3275.33,775.666L3283.11,776.452L3290.39,778.716L3296.97,782.287L3302.68,786.997L3307.39,792.705L3310.96,799.28L3313.22,806.567L3314.01,814.343L3313.22,822.119L3310.96,829.405L3307.39,835.981L3302.68,841.689L3296.97,846.399L3290.39,849.969L3283.11,852.233L3275.33,853.02L3267.56,852.233L3260.27,849.969L3253.69,846.399L3247.99,841.689L3243.27,835.981L3239.7,829.405L3237.44,822.119L3236.65,814.343L3237.44,806.567L3239.7,799.28L3243.27,792.705L3247.99,786.997L3253.69,782.287L3260.27,778.716L3267.56,776.452L3275.33,775.666ZM3275.33,814.743C3275.55,814.743 3275.73,814.563 3275.73,814.343C3275.73,814.122 3275.55,813.943 3275.33,813.943C3275.11,813.943 3274.93,814.122 3274.93,814.343C3274.93,814.563 3275.11,814.743 3275.33,814.743Z" style="fill:none;"/>
                    </g>
                    <g transform="matrix(1.01652,0,0,1.15366,-2761.49,-130.747)">
                        <path d="M3260.28,1155.49C3239.02,1156.08 3216.15,1153.29 3206.19,1147.14C3188.01,1135.89 3176.51,1090.92 3192.39,1079.68C3201.98,1072.89 3237.65,1071.6 3260.28,1071.6C3282.91,1071.6 3318.58,1072.89 3328.16,1079.68C3344.05,1090.92 3332.55,1135.89 3314.37,1147.14C3304.41,1153.29 3281.54,1156.08 3260.28,1155.49Z" style="fill:rgb(155,24,38);"/>
                    </g>
                    <g transform="matrix(1.01652,0,0,1.15366,-2761.49,-130.747)">
                        <path d="M3260.28,1158.5L3260.28,1158.5C3238.38,1159.09 3214.87,1156.03 3204.62,1149.69C3193.09,1142.56 3183.88,1122.72 3182.17,1105.34C3180.96,1093.12 3183.59,1082.23 3190.66,1077.23C3193.78,1075.02 3199.41,1073.25 3206.48,1071.99C3221.83,1069.26 3244.28,1068.6 3260.28,1068.6C3276.28,1068.6 3298.72,1069.26 3314.08,1071.99C3321.14,1073.25 3326.78,1075.02 3329.9,1077.23C3336.97,1082.23 3339.6,1093.12 3338.39,1105.34C3336.67,1122.72 3327.47,1142.56 3315.94,1149.69C3305.69,1156.03 3282.18,1159.09 3260.28,1158.5ZM3260.36,1152.5C3280.96,1153.06 3303.14,1150.55 3312.79,1144.59C3323.09,1138.22 3330.89,1120.28 3332.42,1104.75C3332.93,1099.64 3332.74,1094.79 3331.67,1090.69C3330.72,1087.03 3329.07,1083.99 3326.43,1082.12C3323.8,1080.26 3318.99,1078.95 3313.03,1077.89C3297.97,1075.21 3275.96,1074.6 3260.28,1074.6C3244.6,1074.6 3222.58,1075.21 3207.53,1077.89C3201.57,1078.95 3196.76,1080.26 3194.13,1082.12C3191.49,1083.99 3189.84,1087.03 3188.89,1090.69C3187.81,1094.79 3187.63,1099.64 3188.14,1104.75C3189.67,1120.28 3197.47,1138.22 3207.77,1144.59C3217.42,1150.55 3239.6,1153.06 3260.2,1152.5C3260.25,1152.49 3260.31,1152.49 3260.36,1152.5Z" style="fill:rgb(57,12,24);"/>
                    </g>
                    <g transform="matrix(0.877977,0,0,0.996432,-2309.81,62.0106)">
                        <path d="M3260.28,1155.49C3239.02,1156.08 3216.15,1153.29 3206.19,1147.14C3188.01,1135.89 3176.51,1090.92 3192.39,1079.68C3201.98,1072.89 3237.65,1071.6 3260.28,1071.6C3282.91,1071.6 3318.58,1072.89 3328.16,1079.68C3344.05,1090.92 3332.55,1135.89 3314.37,1147.14C3304.41,1153.29 3281.54,1156.08 3260.28,1155.49Z" style="fill:rgb(254,230,196);"/>
                    </g>
                    <g transform="matrix(0.877977,0,0,0.996432,-2309.81,62.0106)">
                        <path d="M3260.28,1158.97L3260.28,1158.97C3238.28,1159.56 3214.67,1156.46 3204.37,1150.09C3192.74,1142.91 3183.43,1122.92 3181.7,1105.38C3180.47,1092.97 3183.2,1081.93 3190.39,1076.84C3193.55,1074.61 3199.24,1072.79 3206.4,1071.52C3221.77,1068.78 3244.26,1068.13 3260.28,1068.13C3276.3,1068.13 3298.78,1068.78 3314.16,1071.52C3321.32,1072.79 3327.01,1074.61 3330.17,1076.84C3337.36,1081.93 3340.09,1092.97 3338.86,1105.38C3337.13,1122.92 3327.81,1142.91 3316.19,1150.09C3305.89,1156.46 3282.28,1159.56 3260.28,1158.97ZM3260.37,1152.02C3280.87,1152.59 3302.94,1150.12 3312.54,1144.18C3322.74,1137.88 3330.43,1120.09 3331.95,1104.7C3332.45,1099.66 3332.27,1094.86 3331.21,1090.81C3330.29,1087.27 3328.71,1084.32 3326.16,1082.51C3323.57,1080.68 3318.82,1079.41 3312.94,1078.36C3297.91,1075.68 3275.94,1075.08 3260.28,1075.08C3244.62,1075.08 3222.64,1075.68 3207.62,1078.36C3201.74,1079.41 3196.99,1080.68 3194.4,1082.51C3191.85,1084.32 3190.27,1087.27 3189.34,1090.81C3188.28,1094.86 3188.11,1099.66 3188.61,1104.7C3190.13,1120.09 3197.82,1137.88 3208.02,1144.18C3217.62,1150.12 3239.69,1152.59 3260.18,1152.02C3260.25,1152.02 3260.31,1152.02 3260.37,1152.02Z" style="fill:rgb(57,12,24);"/>
                    </g>
                    <g transform="matrix(0.722552,0,0,0.543073,-1733.35,535.244)">
                        <path d="M3238.7,1134.28L3238.7,1158.84L3206.04,1158.84L3206.04,1134.28C3206.04,1134.28 3211.03,1129.69 3221.98,1129.69C3232.94,1129.69 3238.7,1134.28 3238.7,1134.28Z" style="fill:rgb(213,118,94);"/>
                    </g>
                    <g transform="matrix(0.722552,0,0,0.543073,-1733.35,535.244)">
                        <path d="M3241.89,1134.28L3241.89,1158.84C3241.89,1161.62 3240.46,1163.88 3238.7,1163.88L3206.04,1163.88C3204.27,1163.88 3202.84,1161.62 3202.84,1158.84L3202.84,1134.28C3202.84,1132.48 3203.45,1130.82 3204.43,1129.92C3204.43,1129.92 3209.9,1124.65 3221.98,1124.65C3233.89,1124.65 3240.13,1129.77 3240.13,1129.77C3241.21,1130.63 3241.89,1132.37 3241.89,1134.28ZM3235.5,1137.72C3233.19,1136.52 3228.63,1134.74 3221.98,1134.74C3215.49,1134.74 3211.32,1136.44 3209.23,1137.59L3209.23,1153.8L3235.5,1153.8L3235.5,1137.72Z" style="fill:rgb(57,12,24);"/>
                    </g>
                    <g transform="matrix(1.24607,0,0,0.593656,-3424.6,484.282)">
                        <circle cx="3225.76" cy="1144.9" r="9.467" style="fill:rgb(229,171,156);"/>
                    </g>
                    <g transform="matrix(1.24607,0,0,0.593656,-3424.6,484.282)">
                        <path d="M3225.76,1130.82C3229.92,1130.82 3233.51,1133.45 3235.3,1136.91C3236.52,1139.25 3237.08,1142.09 3237.08,1144.9C3237.08,1147.72 3236.52,1150.56 3235.3,1152.9C3233.51,1156.36 3229.92,1158.98 3225.76,1158.98C3221.6,1158.98 3218.01,1156.36 3216.21,1152.9C3215,1150.56 3214.44,1147.72 3214.44,1144.9C3214.44,1142.09 3215,1139.25 3216.21,1136.91C3218.01,1133.45 3221.6,1130.82 3225.76,1130.82ZM3218.19,1144.9C3218.22,1145 3218.26,1145.1 3218.28,1145.18C3218.47,1145.64 3218.72,1146.05 3219.01,1146.45C3220.53,1148.52 3222.99,1149.76 3225.76,1149.76C3228.52,1149.76 3230.99,1148.52 3232.51,1146.45C3232.8,1146.05 3233.05,1145.64 3233.23,1145.18C3233.26,1145.1 3233.3,1145 3233.33,1144.9C3233.3,1144.81 3233.26,1144.7 3233.23,1144.63C3233.05,1144.17 3232.8,1143.75 3232.51,1143.36C3230.99,1141.28 3228.52,1140.05 3225.76,1140.05C3222.99,1140.05 3220.53,1141.28 3219.01,1143.36C3218.72,1143.75 3218.47,1144.17 3218.28,1144.63C3218.26,1144.7 3218.22,1144.81 3218.19,1144.9Z" style="fill:rgb(57,12,24);"/>
                    </g>
                    <g transform="matrix(1.00513,0,0,0.682313,-2713.84,403.476)">
                        <path d="M3238.7,1134.28L3238.7,1158.84L3206.04,1158.84L3206.04,1134.28C3206.04,1134.28 3211.03,1129.69 3221.98,1129.69C3232.94,1129.69 3238.7,1134.28 3238.7,1134.28Z" style="fill:rgb(213,118,94);"/>
                    </g>
                    <g transform="matrix(1.00513,0,0,0.682313,-2713.84,403.476)">
                        <path d="M3241.89,1134.28L3241.89,1158.84C3241.89,1161.62 3240.46,1163.88 3238.7,1163.88L3206.04,1163.88C3204.27,1163.88 3202.84,1161.62 3202.84,1158.84L3202.84,1134.28C3202.84,1132.48 3203.45,1130.82 3204.43,1129.92C3204.43,1129.92 3209.9,1124.65 3221.98,1124.65C3233.89,1124.65 3240.13,1129.77 3240.13,1129.77C3241.21,1130.63 3241.89,1132.37 3241.89,1134.28ZM3235.5,1137.72C3233.19,1136.52 3228.63,1134.74 3221.98,1134.74C3215.49,1134.74 3211.32,1136.44 3209.23,1137.59L3209.23,1153.8L3235.5,1153.8L3235.5,1137.72Z" style="fill:rgb(57,12,24);"/>
                    </g>
                    <g transform="matrix(1.73338,0,0,0.745865,-5066.51,339.447)">
                        <circle cx="3225.76" cy="1144.9" r="9.467" style="fill:rgb(229,171,156);"/>
                    </g>
                    <g transform="matrix(1.73338,0,0,0.745865,-5066.51,339.447)">
                        <path d="M3225.76,1130.82C3229.92,1130.82 3233.51,1133.45 3235.3,1136.91C3236.52,1139.25 3237.08,1142.09 3237.08,1144.9C3237.08,1147.72 3236.52,1150.56 3235.3,1152.9C3233.51,1156.36 3229.92,1158.98 3225.76,1158.98C3221.6,1158.98 3218.01,1156.36 3216.21,1152.9C3215,1150.56 3214.44,1147.72 3214.44,1144.9C3214.44,1142.09 3215,1139.25 3216.21,1136.91C3218.01,1133.45 3221.6,1130.82 3225.76,1130.82ZM3218.19,1144.9C3218.22,1145 3218.26,1145.1 3218.28,1145.18C3218.47,1145.64 3218.72,1146.05 3219.01,1146.45C3220.53,1148.52 3222.99,1149.76 3225.76,1149.76C3228.52,1149.76 3230.99,1148.52 3232.51,1146.45C3232.8,1146.05 3233.05,1145.64 3233.23,1145.18C3233.26,1145.1 3233.3,1145 3233.33,1144.9C3233.3,1144.81 3233.26,1144.7 3233.23,1144.63C3233.05,1144.17 3232.8,1143.75 3232.51,1143.36C3230.99,1141.28 3228.52,1140.05 3225.76,1140.05C3222.99,1140.05 3220.53,1141.28 3219.01,1143.36C3218.72,1143.75 3218.47,1144.17 3218.28,1144.63C3218.26,1144.7 3218.22,1144.81 3218.19,1144.9Z" style="fill:rgb(57,12,24);"/>
                    </g>
                </g>
            </g>
        </g>
    </g>
</svg>
